<svg width="40" height="30" viewBox="0 0 40 30" fill="none" xmlns="http://www.w3.org/2000/svg">
<rect x="40" y="30" width="40" height="30" transform="rotate(180 40 30)" fill="white"/>
<path d="M11.4697 14.4697C11.1768 14.7626 11.1768 15.2374 11.4697 15.5303L16.2426 20.3033C16.5355 20.5962 17.0104 20.5962 17.3033 20.3033C17.5962 20.0104 17.5962 19.5355 17.3033 19.2426L13.0607 15L17.3033 10.7574C17.5962 10.4645 17.5962 9.98959 17.3033 9.6967C17.0104 9.40381 16.5355 9.40381 16.2426 9.6967L11.4697 14.4697ZM27 15L27 14.25L12 14.25L12 15L12 15.75L27 15.75L27 15Z" fill="black"/>
</svg>
